<svg xmlns="http://www.w3.org/2000/svg" width="1536" height="674" style="cursor: move;"><g transform="translate(23.734354224214712,-69.87438793584067) scale(1.22264027769207)"><path class="link" marker-end="" d="M608,147, 788,227" style="stroke-width: 0.5; stroke-opacity: 1; stroke: rgb(161, 161, 255);"></path><path class="link" marker-end="" d="M608,187, 788,227" style="stroke-width: 0.5; stroke-opacity: 1; stroke: rgb(161, 161, 255);"></path><path class="link" marker-end="" d="M608,227, 788,227" style="stroke-width: 0.5; stroke-opacity: 1; stroke: rgb(230, 230, 255);"></path><path class="link" marker-end="" d="M608,267, 788,227" style="stroke-width: 0.5; stroke-opacity: 1; stroke: rgb(118, 118, 255);"></path><path class="link" marker-end="" d="M608,307, 788,227" style="stroke-width: 0.5; stroke-opacity: 1; stroke: rgb(196, 196, 255);"></path><path class="link" marker-end="" d="M608,347, 788,227" style="stroke-width: 0.5; stroke-opacity: 1; stroke: rgb(255, 121, 121);"></path><path class="link" marker-end="" d="M608,387, 788,227" style="stroke-width: 0.5; stroke-opacity: 1; stroke: rgb(255, 77, 77);"></path><path class="link" marker-end="" d="M608,427, 788,227" style="stroke-width: 0.5; stroke-opacity: 1; stroke: rgb(133, 133, 255);"></path><path class="link" marker-end="" d="M608,467, 788,227" style="stroke-width: 0.5; stroke-opacity: 1; stroke: rgb(255, 62, 62);"></path><path class="link" marker-end="" d="M608,507, 788,227" style="stroke-width: 0.5; stroke-opacity: 1; stroke: rgb(57, 57, 255);"></path><path class="link" marker-end="" d="M608,147, 788,267" style="stroke-width: 0.5; stroke-opacity: 1; stroke: rgb(181, 181, 255);"></path><path class="link" marker-end="" d="M608,187, 788,267" style="stroke-width: 0.5; stroke-opacity: 1; stroke: rgb(77, 77, 255);"></path><path class="link" marker-end="" d="M608,227, 788,267" style="stroke-width: 0.5; stroke-opacity: 1; stroke: rgb(243, 243, 255);"></path><path class="link" marker-end="" d="M608,267, 788,267" style="stroke-width: 0.5; stroke-opacity: 1; stroke: rgb(206, 206, 255);"></path><path class="link" marker-end="" d="M608,307, 788,267" style="stroke-width: 0.5; stroke-opacity: 1; stroke: rgb(255, 140, 140);"></path><path class="link" marker-end="" d="M608,347, 788,267" style="stroke-width: 0.5; stroke-opacity: 1; stroke: rgb(72, 72, 255);"></path><path class="link" marker-end="" d="M608,387, 788,267" style="stroke-width: 0.5; stroke-opacity: 1; stroke: rgb(45, 45, 255);"></path><path class="link" marker-end="" d="M608,427, 788,267" style="stroke-width: 0.5; stroke-opacity: 1; stroke: rgb(255, 34, 34);"></path><path class="link" marker-end="" d="M608,467, 788,267" style="stroke-width: 0.5; stroke-opacity: 1; stroke: rgb(203, 203, 255);"></path><path class="link" marker-end="" d="M608,507, 788,267" style="stroke-width: 0.5; stroke-opacity: 1; stroke: rgb(255, 171, 171);"></path><path class="link" marker-end="" d="M608,147, 788,307" style="stroke-width: 0.5; stroke-opacity: 1; stroke: rgb(195, 195, 255);"></path><path class="link" marker-end="" d="M608,187, 788,307" style="stroke-width: 0.5; stroke-opacity: 1; stroke: rgb(255, 158, 158);"></path><path class="link" marker-end="" d="M608,227, 788,307" style="stroke-width: 0.5; stroke-opacity: 1; stroke: rgb(255, 37, 37);"></path><path class="link" marker-end="" d="M608,267, 788,307" style="stroke-width: 0.5; stroke-opacity: 1; stroke: rgb(43, 43, 255);"></path><path class="link" marker-end="" d="M608,307, 788,307" style="stroke-width: 0.5; stroke-opacity: 1; stroke: rgb(255, 119, 119);"></path><path class="link" marker-end="" d="M608,347, 788,307" style="stroke-width: 0.5; stroke-opacity: 1; stroke: rgb(69, 69, 255);"></path><path class="link" marker-end="" d="M608,387, 788,307" style="stroke-width: 0.5; stroke-opacity: 1; stroke: rgb(215, 215, 255);"></path><path class="link" marker-end="" d="M608,427, 788,307" style="stroke-width: 0.5; stroke-opacity: 1; stroke: rgb(255, 73, 73);"></path><path class="link" marker-end="" d="M608,467, 788,307" style="stroke-width: 0.5; stroke-opacity: 1; stroke: rgb(255, 32, 32);"></path><path class="link" marker-end="" d="M608,507, 788,307" style="stroke-width: 0.5; stroke-opacity: 1; stroke: rgb(226, 226, 255);"></path><path class="link" marker-end="" d="M608,147, 788,347" style="stroke-width: 0.5; stroke-opacity: 1; stroke: rgb(97, 97, 255);"></path><path class="link" marker-end="" d="M608,187, 788,347" style="stroke-width: 0.5; stroke-opacity: 1; stroke: rgb(255, 7, 7);"></path><path class="link" marker-end="" d="M608,227, 788,347" style="stroke-width: 0.5; stroke-opacity: 1; stroke: rgb(129, 129, 255);"></path><path class="link" marker-end="" d="M608,267, 788,347" style="stroke-width: 0.5; stroke-opacity: 1; stroke: rgb(255, 131, 131);"></path><path class="link" marker-end="" d="M608,307, 788,347" style="stroke-width: 0.5; stroke-opacity: 1; stroke: rgb(111, 111, 255);"></path><path class="link" marker-end="" d="M608,347, 788,347" style="stroke-width: 0.5; stroke-opacity: 1; stroke: rgb(255, 6, 6);"></path><path class="link" marker-end="" d="M608,387, 788,347" style="stroke-width: 0.5; stroke-opacity: 1; stroke: rgb(53, 53, 255);"></path><path class="link" marker-end="" d="M608,427, 788,347" style="stroke-width: 0.5; stroke-opacity: 1; stroke: rgb(96, 96, 255);"></path><path class="link" marker-end="" d="M608,467, 788,347" style="stroke-width: 0.5; stroke-opacity: 1; stroke: rgb(90, 90, 255);"></path><path class="link" marker-end="" d="M608,507, 788,347" style="stroke-width: 0.5; stroke-opacity: 1; stroke: rgb(255, 149, 149);"></path><path class="link" marker-end="" d="M608,147, 788,387" style="stroke-width: 0.5; stroke-opacity: 1; stroke: rgb(78, 78, 255);"></path><path class="link" marker-end="" d="M608,187, 788,387" style="stroke-width: 0.5; stroke-opacity: 1; stroke: rgb(100, 100, 255);"></path><path class="link" marker-end="" d="M608,227, 788,387" style="stroke-width: 0.5; stroke-opacity: 1; stroke: rgb(193, 193, 255);"></path><path class="link" marker-end="" d="M608,267, 788,387" style="stroke-width: 0.5; stroke-opacity: 1; stroke: rgb(35, 35, 255);"></path><path class="link" marker-end="" d="M608,307, 788,387" style="stroke-width: 0.5; stroke-opacity: 1; stroke: rgb(239, 239, 255);"></path><path class="link" marker-end="" d="M608,347, 788,387" style="stroke-width: 0.5; stroke-opacity: 1; stroke: rgb(255, 10, 10);"></path><path class="link" marker-end="" d="M608,387, 788,387" style="stroke-width: 0.5; stroke-opacity: 1; stroke: rgb(255, 191, 191);"></path><path class="link" marker-end="" d="M608,427, 788,387" style="stroke-width: 0.5; stroke-opacity: 1; stroke: rgb(163, 163, 255);"></path><path class="link" marker-end="" d="M608,467, 788,387" style="stroke-width: 0.5; stroke-opacity: 1; stroke: rgb(75, 75, 255);"></path><path class="link" marker-end="" d="M608,507, 788,387" style="stroke-width: 0.5; stroke-opacity: 1; stroke: rgb(222, 222, 255);"></path><path class="link" marker-end="" d="M608,147, 788,427" style="stroke-width: 0.5; stroke-opacity: 1; stroke: rgb(255, 222, 222);"></path><path class="link" marker-end="" d="M608,187, 788,427" style="stroke-width: 0.5; stroke-opacity: 1; stroke: rgb(255, 183, 183);"></path><path class="link" marker-end="" d="M608,227, 788,427" style="stroke-width: 0.5; stroke-opacity: 1; stroke: rgb(189, 189, 255);"></path><path class="link" marker-end="" d="M608,267, 788,427" style="stroke-width: 0.5; stroke-opacity: 1; stroke: rgb(197, 197, 255);"></path><path class="link" marker-end="" d="M608,307, 788,427" style="stroke-width: 0.5; stroke-opacity: 1; stroke: rgb(6, 6, 255);"></path><path class="link" marker-end="" d="M608,347, 788,427" style="stroke-width: 0.5; stroke-opacity: 1; stroke: rgb(255, 37, 37);"></path><path class="link" marker-end="" d="M608,387, 788,427" style="stroke-width: 0.5; stroke-opacity: 1; stroke: rgb(255, 217, 217);"></path><path class="link" marker-end="" d="M608,427, 788,427" style="stroke-width: 0.5; stroke-opacity: 1; stroke: rgb(255, 137, 137);"></path><path class="link" marker-end="" d="M608,467, 788,427" style="stroke-width: 0.5; stroke-opacity: 1; stroke: rgb(56, 56, 255);"></path><path class="link" marker-end="" d="M608,507, 788,427" style="stroke-width: 0.5; stroke-opacity: 1; stroke: rgb(198, 198, 255);"></path><path class="link" marker-end="" d="M788,227, 968,327" style="stroke-width: 0.5; stroke-opacity: 1; stroke: rgb(255, 163, 163);"></path><path class="link" marker-end="" d="M788,267, 968,327" style="stroke-width: 0.5; stroke-opacity: 1; stroke: rgb(255, 209, 209);"></path><path class="link" marker-end="" d="M788,307, 968,327" style="stroke-width: 0.5; stroke-opacity: 1; stroke: rgb(101, 101, 255);"></path><path class="link" marker-end="" d="M788,347, 968,327" style="stroke-width: 0.5; stroke-opacity: 1; stroke: rgb(126, 126, 255);"></path><path class="link" marker-end="" d="M788,387, 968,327" style="stroke-width: 0.5; stroke-opacity: 1; stroke: rgb(192, 192, 255);"></path><path class="link" marker-end="" d="M788,427, 968,327" style="stroke-width: 0.5; stroke-opacity: 1; stroke: rgb(255, 89, 89);"></path><circle r="10" class="node" id="0_0" cx="608" cy="147" style="fill: rgb(255, 255, 255); stroke: rgb(51, 51, 51);"></circle><circle r="10" class="node" id="0_1" cx="608" cy="187" style="fill: rgb(255, 255, 255); stroke: rgb(51, 51, 51);"></circle><circle r="10" class="node" id="0_2" cx="608" cy="227" style="fill: rgb(255, 255, 255); stroke: rgb(51, 51, 51);"></circle><circle r="10" class="node" id="0_3" cx="608" cy="267" style="fill: rgb(255, 255, 255); stroke: rgb(51, 51, 51);"></circle><circle r="10" class="node" id="0_4" cx="608" cy="307" style="fill: rgb(255, 255, 255); stroke: rgb(51, 51, 51);"></circle><circle r="10" class="node" id="0_5" cx="608" cy="347" style="fill: rgb(255, 255, 255); stroke: rgb(51, 51, 51);"></circle><circle r="10" class="node" id="0_6" cx="608" cy="387" style="fill: rgb(255, 255, 255); stroke: rgb(51, 51, 51);"></circle><circle r="10" class="node" id="0_7" cx="608" cy="427" style="fill: rgb(255, 255, 255); stroke: rgb(51, 51, 51);"></circle><circle r="10" class="node" id="0_8" cx="608" cy="467" style="fill: rgb(255, 255, 255); stroke: rgb(51, 51, 51);"></circle><circle r="10" class="node" id="0_9" cx="608" cy="507" style="fill: rgb(255, 255, 255); stroke: rgb(51, 51, 51);"></circle><text class="text" dy=".35em" x="573" y="547" style="font-size: 12px;"></text><circle r="10" class="node" id="1_0" cx="788" cy="227" style="fill: rgb(255, 255, 255); stroke: rgb(51, 51, 51);"></circle><text class="text" dy=".35em" x="753" y="547" style="font-size: 12px;"></text><circle r="10" class="node" id="1_1" cx="788" cy="267" style="fill: rgb(255, 255, 255); stroke: rgb(51, 51, 51);"></circle><circle r="10" class="node" id="1_2" cx="788" cy="307" style="fill: rgb(255, 255, 255); stroke: rgb(51, 51, 51);"></circle><circle r="10" class="node" id="1_3" cx="788" cy="347" style="fill: rgb(255, 255, 255); stroke: rgb(51, 51, 51);"></circle><circle r="10" class="node" id="1_4" cx="788" cy="387" style="fill: rgb(255, 255, 255); stroke: rgb(51, 51, 51);"></circle><circle r="10" class="node" id="1_5" cx="788" cy="427" style="fill: rgb(255, 255, 255); stroke: rgb(51, 51, 51);"></circle><circle r="10" class="node" id="2_0" cx="968" cy="327" style="fill: rgb(255, 255, 255); stroke: rgb(51, 51, 51);"></circle><text class="text" dy=".35em" x="933" y="547" style="font-size: 12px;"></text></g><defs><marker id="arrow" viewBox="0 -5 10 10" markerWidth="7" markerHeight="7" orient="auto" refX="40"><path d="M0,-5L10,0L0,5" style="stroke: rgb(80, 80, 80); fill: none;"></path></marker></defs></svg>